<svg id="mention" xmlns="http://www.w3.org/2000/svg" width="14.002" height="14.003" viewBox="0 0 14.002 14.003">
  <path id="Mention-path" d="M14,7.426c0-.105,0-.208-.005-.313a6.929,6.929,0,0,0-.03-.707A6.706,6.706,0,0,0,9.953.7a6.742,6.742,0,0,0-7.281.833A6.582,6.582,0,0,0,.011,6.679,6.9,6.9,0,0,0,4.554,13.56a6.567,6.567,0,0,0,.636.192c.1.026.19.051.283.079l.174.054L6.588,14h.318a7.23,7.23,0,0,0,.737-.033,9.838,9.838,0,0,0,1.192-.214,1.017,1.017,0,1,0-.525-1.964,4.953,4.953,0,1,1,3.482-3.536.972.972,0,0,1-.209.424.691.691,0,0,1-.782.1,1.286,1.286,0,0,1-.553-.613c-.457-.94-.121-2.346-.068-3.364a.942.942,0,0,0-.892-.988.925.925,0,0,0-.822.423,3.393,3.393,0,0,0-2.527-.413A3.343,3.343,0,0,0,3.8,8.781a3.277,3.277,0,0,0,2.786,1.651,3.475,3.475,0,0,0,2.146-.681,3.149,3.149,0,0,0,2.745,1.086,2.755,2.755,0,0,0,2.242-1.894c.045-.123.078-.25.111-.378l.051-.2Z" transform="translate(0 0)" fill="#403b58"/>
  <path id="Mention-path-2" data-name="Mention-path" d="M2.63,1.385a1.316,1.316,0,1,1-.337-.95,1.316,1.316,0,0,1,.337.95Z" transform="translate(5.382 5.769)" fill="#403b58" stroke="#f0f0f0" stroke-width="1"/>
</svg>
